<?xml version="1.0" standalone="no"?>
<!DOCTYPE svg PUBLIC "-//W3C//DTD SVG 20010904//EN"
 "http://www.w3.org/TR/2001/REC-SVG-20010904/DTD/svg10.dtd">
<svg version="1.0" xmlns="http://www.w3.org/2000/svg"
 width="736.000000pt" height="736.000000pt" viewBox="0 0 736.000000 736.000000"
 preserveAspectRatio="xMidYMid meet">
<metadata>
Created by potrace 1.11, written by Peter Selinger 2001-2013
</metadata>
<g transform="translate(0.000000,736.000000) scale(0.100000,-0.100000)"
fill="#000000" stroke="none">
<path d="M6030 7196 c-6 -6 -10 -7 -10 -4 0 13 -181 -42 -213 -64 -82 -58
-176 -143 -217 -198 -14 -19 -35 -46 -47 -61 -13 -15 -23 -32 -23 -38 0 -6 -3
-11 -8 -11 -6 0 -71 -122 -93 -175 -36 -87 -68 -210 -74 -287 -15 -188 -15
-188 -30 -263 -2 -11 -18 -67 -35 -125 -31 -108 -45 -160 -55 -219 -18 -105
-87 -124 -398 -107 -27 1 -42 8 -50 21 -5 11 -25 38 -44 61 -18 23 -33 46 -33
53 0 6 -4 11 -8 11 -4 0 -16 15 -27 32 -37 63 -93 105 -149 111 -54 6 -91 -25
-142 -118 -15 -27 -43 -75 -63 -105 -20 -30 -39 -63 -43 -72 -4 -10 -12 -18
-18 -18 -5 0 -10 -5 -10 -11 0 -18 -223 -303 -325 -415 -11 -12 -54 -59 -95
-105 -41 -46 -192 -201 -336 -344 -232 -232 -339 -334 -483 -461 -24 -22 -60
-55 -81 -74 -21 -20 -57 -51 -81 -70 -78 -63 -165 -158 -194 -212 -37 -69 -39
-137 -4 -174 22 -24 176 -106 207 -110 7 -2 21 -6 30 -10 9 -4 22 -8 29 -10
82 -17 257 -86 269 -106 6 -10 -162 -179 -360 -362 -54 -50 -110 -102 -125
-116 -15 -14 -47 -43 -72 -65 -88 -77 -183 -160 -205 -180 -12 -11 -41 -36
-64 -55 -23 -19 -52 -44 -65 -55 -12 -11 -40 -34 -61 -52 -22 -17 -49 -39 -61
-50 -12 -10 -36 -29 -54 -43 -17 -14 -40 -33 -50 -43 -11 -9 -24 -17 -29 -17
-6 0 -10 -4 -10 -8 0 -5 -19 -22 -42 -39 -24 -17 -54 -40 -68 -52 -39 -32 -41
-34 -105 -81 -33 -25 -61 -48 -63 -52 -2 -5 -10 -8 -17 -8 -7 0 -15 -4 -17 -8
-3 -8 -51 -46 -119 -95 -68 -48 -155 -112 -159 -117 -15 -15 -220 -150 -229
-150 -5 0 -14 -6 -18 -12 -4 -7 -24 -22 -43 -32 -19 -11 -39 -24 -45 -28 -5
-5 -71 -50 -145 -101 -110 -76 -226 -159 -285 -204 -5 -5 -50 -40 -100 -78
-49 -38 -99 -77 -110 -86 -101 -85 -222 -186 -231 -194 -6 -5 -44 -39 -84 -75
-93 -82 -128 -120 -136 -144 -8 -24 12 -60 40 -76 61 -32 67 -115 17 -250 -60
-162 -51 -186 67 -182 18 1 89 27 159 58 70 32 133 57 140 57 7 0 13 3 13 7 0
3 33 14 73 25 39 10 76 20 82 24 5 3 16 6 25 7 8 1 33 5 55 9 61 10 158 23
180 24 123 6 314 -2 354 -15 11 -3 6 -10 -16 -23 -54 -33 -160 -221 -177 -313
-6 -36 20 -61 91 -88 78 -29 87 -31 171 -35 85 -3 168 14 232 47 56 29 61 33
113 87 69 73 143 145 198 192 29 24 57 49 63 54 6 6 27 22 46 35 19 13 37 27
40 30 15 20 232 149 260 156 3 0 19 7 35 14 17 7 32 14 35 15 3 1 12 4 20 8
32 12 115 42 120 43 5 1 45 17 95 38 57 25 80 33 86 32 4 0 15 6 25 15 11 9
34 24 53 34 52 26 137 111 177 176 60 99 114 130 254 144 36 4 74 9 85 11 19
4 58 9 138 20 23 3 71 10 107 15 105 17 162 12 209 -17 37 -23 85 -78 107
-122 25 -49 106 -170 135 -203 13 -15 38 -42 54 -60 17 -19 59 -58 95 -87 36
-29 72 -58 80 -65 22 -20 127 -78 195 -109 33 -15 56 -28 50 -29 -18 -2 -69
-6 -123 -9 -29 -2 -55 -7 -58 -12 -3 -5 -9 -6 -13 -4 -6 4 -37 -2 -106 -20
-11 -3 -24 -6 -30 -8 -26 -6 -93 -29 -120 -41 -16 -7 -55 -23 -85 -36 -30 -13
-61 -29 -67 -35 -7 -7 -18 -15 -25 -17 -21 -9 9 -24 61 -33 25 -4 51 -8 56 -9
41 -9 258 -44 306 -50 19 -2 54 -6 79 -10 61 -9 95 -13 159 -19 29 -3 61 -8
70 -10 9 -3 43 -8 76 -11 33 -3 72 -7 85 -10 14 -3 50 -7 80 -10 30 -3 66 -7
80 -10 40 -7 112 -17 150 -20 19 -2 55 -6 80 -9 25 -3 65 -8 90 -12 25 -3 59
-7 75 -9 17 -2 53 -7 80 -10 63 -8 97 -13 160 -21 72 -10 84 -8 123 20 26 19
40 22 61 16 90 -25 78 75 -23 186 l-45 51 67 65 c76 73 125 127 117 129 -21 5
-25 7 -27 9 -3 2 -16 5 -58 13 -14 3 -32 8 -40 11 -21 7 -67 14 -200 31 -107
13 -352 14 -425 1 -16 -3 -55 -8 -85 -11 -30 -4 -60 -11 -66 -16 -6 -5 -37
-12 -68 -14 -89 -8 -142 21 -223 121 -17 21 -49 58 -70 81 -21 23 -56 63 -78
89 -65 76 -128 147 -160 179 -44 46 -65 88 -65 134 0 51 15 83 59 130 20 21
76 87 126 147 124 150 157 187 336 364 186 185 161 162 445 400 12 9 25 19 30
21 5 2 61 38 124 80 63 42 141 92 173 113 l58 36 142 -45 c170 -55 249 -76
498 -130 9 -2 34 -6 55 -9 22 -4 66 -11 99 -16 127 -20 233 -30 340 -31 137
-2 177 27 227 166 14 39 42 104 61 145 59 124 155 381 172 460 1 8 8 35 15 60
7 25 14 54 16 65 2 11 6 31 9 45 10 47 15 70 19 88 2 9 7 37 10 62 3 25 8 55
10 67 4 20 14 111 22 193 14 163 -11 281 -76 351 -24 26 -320 108 -445 124
-11 1 -19 6 -19 11 16 89 18 136 18 284 0 161 -16 445 -24 445 -1 0 -3 23 -5
50 -2 28 -6 64 -9 80 -4 17 -9 53 -12 80 -3 28 -8 53 -10 56 -2 4 -6 24 -10
45 -5 34 -22 119 -40 204 -3 14 -10 43 -16 65 -5 22 -12 49 -13 60 -2 11 -13
52 -25 90 -69 219 -72 266 -24 360 69 138 212 231 369 241 28 1 52 3 55 5 3 1
9 1 15 -1 5 -1 48 -3 95 -5 87 -3 223 -25 273 -44 16 -6 30 -11 31 -11 6 0
-12 75 -33 138 -41 126 -46 133 -151 222 -104 88 -362 341 -459 448 -36 40
-77 79 -91 87 -104 59 -230 106 -322 121 -65 11 -258 10 -268 0z"/>
</g>
</svg>
