<svg xmlns="http://www.w3.org/2000/svg" width="33" height="33" viewBox="0 0 33 33"><defs><style>.icon-usdt-a{fill:#26a17b;stroke:#fff;}.icon-usdt-b{fill:#fff;fill-rule:evenodd;}</style></defs><g transform="translate(0.5 0.5)"><path class="icon-usdt-a" d="M16,0A16,16,0,1,1,0,16,16,16,0,0,1,16,0Z"/><path class="icon-usdt-b" d="M17.922,17.383v0c-.11.008-.677.042-1.942.042-1.01,0-1.721-.03-1.971-.042v0c-3.888-.171-6.79-.848-6.79-1.658s2.9-1.486,6.79-1.66V16.71c.254.018.982.061,1.988.061,1.207,0,1.812-.05,1.925-.06V14.068c3.88.173,6.775.85,6.775,1.658s-2.9,1.485-6.775,1.657m0-3.59V11.427h5.414V7.819H8.6v3.608h5.414v2.365c-4.4.2-7.709,1.074-7.709,2.118s3.309,1.915,7.709,2.118V25.61h3.913V18.026c4.393-.2,7.694-1.073,7.694-2.116s-3.3-1.914-7.694-2.117"/></g></svg>
