<svg xmlns="http://www.w3.org/2000/svg" width="33" height="33" viewBox="0 0 33 33"><defs><style>.icon-loading-a{fill:#fff;stroke:#094067;stroke-width:2px;}.icon-loading-b{fill:#094067;}.icon-loading-c{stroke:none;}.icon-loading-d{fill:none;}</style></defs><g class="icon-loading-a"><circle class="icon-loading-c" cx="16.5" cy="16.5" r="16.5"/><circle class="icon-loading-d" cx="16.5" cy="16.5" r="15.5"/></g><path class="icon-loading-b" d="M14.392,2.559a.959.959,0,0,0,.959-.959V.959A.959.959,0,0,0,14.392,0H.959A.959.959,0,0,0,0,.959V1.6a.959.959,0,0,0,.959.959C.959,6.2,3,9.264,5.791,10.235,3,11.2.959,14.274.959,17.911A.959.959,0,0,0,0,18.87v.64a.959.959,0,0,0,.959.959H14.392a.959.959,0,0,0,.959-.959v-.64a.959.959,0,0,0-.959-.959c0-3.637-2.04-6.706-4.831-7.676C12.353,9.264,14.392,6.2,14.392,2.559ZM7.676,8.316c-2.31,0-4.158-2.659-4.158-5.757h8.316C11.834,5.675,9.974,8.316,7.676,8.316Z" transform="translate(12.509 4.842) rotate(17)"/></svg>
