<svg xmlns="http://www.w3.org/2000/svg" viewBox="0 0 23 22.097"><defs><style>.paloma-logo{fill:red;}</style></defs><g transform="translate(0)"><path class="paloma-logo" d="M255.67,19.076a13.977,13.977,0,0,0-.419-2.96c-.055-.45-.363-.872-.259-1.313a1.374,1.374,0,0,1,1.16-.94,4.036,4.036,0,0,1,1.564.167,3.826,3.826,0,0,0-.3-.869,18.475,18.475,0,0,1-1.923-1.867,2.74,2.74,0,0,0-2.567-.266,3.4,3.4,0,0,0-1.532,2.832c-.073.7-.283,1.01-.358,1.578-.072.54-1.652.133-1.39.322s-.247-.441-.382-.657-.42-.392-.636-.258a.66.66,0,0,0-.207.27c-1.181,2.208-5.065,5.5-5.065,5.5s-.917.8-.2,1.137c.544.316,1.048.312,1.524.608a43.122,43.122,0,0,1-5.96,5,25.712,25.712,0,0,0-3.886,2.967c-.067.068-.138.157-.112.249s.137.133.2.2c.3.313-.156.845-.135,1.2.162.207.488.084.722-.037a4.906,4.906,0,0,1,3.045-.471c-.407.163-.659,1.012-.668,1.036-.112.286,1.209.74,1.888-.008a6.8,6.8,0,0,1,1.59-1.316c.768-.448,1.815-.523,2.3-1.269a1.369,1.369,0,0,1,.252-.348.906.906,0,0,1,.454-.15l1.254-.176a.925.925,0,0,1,.467.015.864.864,0,0,1,.387.363,3.677,3.677,0,0,0,1.994,1.8,4.2,4.2,0,0,0-2.068.587c.04.146,3.6.542,5.565.8.337-.174.1-.174.413-.126.321-.048-.061-.566-.306-.75a3.505,3.505,0,0,0,.6-.61,5.85,5.85,0,0,0-2.8-.135.669.669,0,0,1-.872-.257l-1.032-1.176a.506.506,0,0,1,.026-.822,15.938,15.938,0,0,1,2.84-2.851c1.218-.867,2.806-1.546,3.2-2.988a1.17,1.17,0,0,1,.179-.457,5.192,5.192,0,0,1,.356-.411,3.857,3.857,0,0,0,1.088-3.152" transform="translate(-234.716 -10.814)"/><path class="paloma-logo" d="M3.514-.065A9.079,9.079,0,0,1,7.437.382a1.312,1.312,0,0,1,.258.981,9.413,9.413,0,0,1-.883,3.454c-.235.379-.17.923-.762.923C4.11,5.74,0,4.608,0,2.945A3.291,3.291,0,0,1,3.514-.065Z" transform="translate(14.895 9.491)"/></g></svg>
